<svg width="250" height="44"  id="Layer_1"  data-name="Layer 1" xmlns="http://www.w3.org/2000/svg" viewBox="0 0 1981.79 676.67"><defs><style>.cls-1{fill:#fff;}.cls-2{fill:#f60;}</style></defs><path class="cls-1" d="M795.49,393.2l29.93-266h77.32l45,131,17,62.33H969l30.25-62.33,72.64-131h77.69l-29.93,266h-57.13l15.19-135,6.6-41.69h-4.19l-19.55,41.69L993.8,377.32H924.49l-39.92-119.1-10.16-41.69h-4.19l-2.41,41.69-15.19,135Z" transform="translate(-9.11 -15.84)"/><path class="cls-1" d="M1164.45,282l17.43-154.84H1239l-16.94,150.47c-5.09,45.26,9.46,61.54,61.25,61.54,52.18,0,70-16.28,75.11-61.54l16.93-150.47h57.13L1415.06,282c-8,71.46-54.85,115.13-138.26,115.13C1193.77,397.17,1156.41,353.5,1164.45,282Z" transform="translate(-9.11 -15.84)"/><path class="cls-1" d="M1396.06,393.2l141.53-266h81.51l82.42,266H1636l-17.38-58.76H1491l-31,58.76Zm123.1-112.35h83.41l-17.47-58-11-41.29h-4.19l-20.26,41.29Z" transform="translate(-9.11 -15.84)"/><path class="cls-1" d="M1724.82,393.2l6-53.6,167.44-154.43.5-4.37H1752.15l6-53.6h232.71l-6,53.6L1812.47,335.24l-.49,4.36H1970l-6,53.6Z" transform="translate(-9.11 -15.84)"/><path class="cls-1" d="M773.6,510.91c4.26-37.81,31-62.42,63.78-62.42,27.94,0,48.42,17,45.44,43.42l-.22,2h-8.16l.23-2c2.5-22.25-11.44-35.64-38.17-35.64-30.2,0-51,19.72-54.91,54.64s12.44,54.45,42.64,54.45c26.72,0,43.66-13.21,46.18-35.64l.2-1.81h8.16l-.2,1.81c-3,26.6-27.12,43.6-55.24,43.6C790.53,573.32,769.35,548.72,773.6,510.91Z" transform="translate(-9.11 -15.84)"/><path class="cls-1" d="M928.76,510.91c4.26-37.81,31.32-62.42,64.47-62.42,33.32,0,54.68,24.61,50.42,62.42s-31.14,62.41-64.47,62.41C946,573.32,924.51,548.72,928.76,510.91Zm106.91,0c3.93-34.92-12.59-54.64-43.31-54.64S940.67,476,936.74,510.91s12.62,54.45,43.34,54.45S1031.74,545.82,1035.67,510.91Z" transform="translate(-9.11 -15.84)"/><path class="cls-1" d="M1089.77,571.51l13.64-121.21h10.76l33.39,85.75,7.6,20.45h.69L1168,536.05l52.87-85.75h10.59l-13.64,121.21h-7.81l10.5-93.35,1.93-15.56h-.7l-9.21,15.56-53.26,86.12h-9.37l-33.87-86.12-5.71-15.56h-.69l-1.58,15.56-10.51,93.35Z" transform="translate(-9.11 -15.84)"/><path class="cls-1" d="M1275.48,571.51l13.64-121.21h51c24.64,0,40.69,14.66,37.84,40s-22.2,40-46.84,40h-43.22l-4.64,41.25Zm20.62-113.79-7.33,65.13h42.87c22.56,0,36-10.31,38.54-32.57s-8.65-32.56-31.22-32.56Z" transform="translate(-9.11 -15.84)"/><path class="cls-1" d="M1423.24,521.58l8-71.28h7.81l-8,71.1c-3.4,30.21,10,44,38.1,44,28.29,0,44.76-13.75,48.16-44l8-71.1H1533l-8,71.28c-3.79,33.65-26.31,51.74-56.68,51.74C1438.07,573.32,1419.46,555.23,1423.24,521.58Z" transform="translate(-9.11 -15.84)"/><path class="cls-1" d="M1616,571.51l12.81-113.79h-49.47l.84-7.42h106.39l-.84,7.42h-49.29l-12.8,113.79Z" transform="translate(-9.11 -15.84)"/><path class="cls-1" d="M1721,571.51l13.64-121.21h85l-.84,7.42h-77.23l-5.54,49.21h74.63l-.81,7.23h-74.63l-5.62,49.93h77.23l-.84,7.42Z" transform="translate(-9.11 -15.84)"/><path class="cls-1" d="M1859.68,571.51l13.64-121.21h54.49c22.91,0,38,12.67,35.51,34.56-2.34,20.8-19.25,33.83-40.77,33.83l-.08.72c6.37,2,10.33,6.87,13.59,13.39l19.07,38.71h-8.68l-18.29-36.36c-4.91-10.31-11.15-15-27.3-15h-27.59l-5.78,51.38Zm14.38-58.43h46.69c20.31,0,32.41-8.87,34.53-27.68s-8-27.68-28.3-27.68h-46.69Z" transform="translate(-9.11 -15.84)"/><path class="cls-2" d="M9.11,15.84l372,676.67,372-676.67Zm58,34h628L381.11,621Z" transform="translate(-9.11 -15.84)"/><polygon class="cls-1" points="408.04 473.04 372 538.6 335.96 473.04 408.04 473.04"/><path class="cls-1" d="M421.76,172h0q-59.92,109-119.86,218l-86.31-157V459.6H140.08V95.7h83l78.11,142.09,36.6-66.58H421.3Z" transform="translate(-9.11 -15.84)"/><path class="cls-1" d="M622.13,456V254.41L554.05,378.26h-89L620.14,96.14v-.45H259.27l41.51,75.51H494.5L338.05,455.8,338,456Zm-75.5-64.06,0-.07,0-.07Z" transform="translate(-9.11 -15.84)"/></svg>